<?xml version="1.0" encoding="UTF-8"?>
<svg width="206px" height="70px" viewBox="0 0 206 70" version="1.1" xmlns="http://www.w3.org/2000/svg" xmlns:xlink="http://www.w3.org/1999/xlink">
    <!-- Generator: Sketch 52.6 (67491) - http://www.bohemiancoding.com/sketch -->
    <title>Artboard</title>
    <desc>Created with Sketch.</desc>
    <g id="Artboard" stroke="none" stroke-width="1" fill="none" fill-rule="evenodd">
        <g id="Group" transform="translate(32.000000, 30.000000) rotate(-315.000000) translate(-32.000000, -30.000000) translate(19.000000, 17.000000)">
            <rect id="Rectangle-Copy-99" fill="#F2F2FA" x="18" y="18" width="8" height="8"></rect>
            <rect id="Rectangle-Copy-98" fill="#3489FB" x="9" y="18" width="8" height="8"></rect>
            <rect id="Rectangle-Copy-97" fill="#F2F2FA" x="0" y="18" width="8" height="8"></rect>
            <rect id="Rectangle-Copy-89" fill="#F2F2FA" x="18" y="9" width="8" height="8"></rect>
            <path d="M9,9 L17,9 L17,17 L9,17 L9,9 Z" id="Rectangle-Copy-88" stroke="#FB8934" fill="#F2F2FA" stroke-dasharray="1,1"></path>
            <rect id="Rectangle-Copy-87" fill="#F2F2FA" x="0" y="9" width="8" height="8"></rect>
            <rect id="Rectangle-Copy-79" fill="#F2F2FA" x="18" y="0" width="8" height="8"></rect>
            <rect id="Rectangle-Copy-78" fill="#F2F2FA" x="9" y="0" width="8" height="8"></rect>
            <rect id="Rectangle-Copy-77" fill="#F2F2FA" x="0" y="0" width="8" height="8"></rect>
        </g>
        <g id="Group-2" transform="translate(101.000000, 30.000000) rotate(-315.000000) translate(-101.000000, -30.000000) translate(88.000000, 17.000000)">
            <rect id="Rectangle-Copy-99" fill="#F2F2FA" x="18" y="18" width="8" height="8"></rect>
            <rect id="Rectangle-Copy-98" fill="#3489FB" x="9" y="18" width="8" height="8"></rect>
            <rect id="Rectangle-Copy-97" fill="#F2F2FA" x="0" y="18" width="8" height="8"></rect>
            <rect id="Rectangle-Copy-89" fill="#3489FB" x="18" y="9" width="8" height="8"></rect>
            <path d="M9,9 L17,9 L17,17 L9,17 L9,9 Z" id="Rectangle-Copy-88" stroke="#FB8934" fill="#F2F2FA" stroke-dasharray="1,1"></path>
            <rect id="Rectangle-Copy-87" fill="#F2F2FA" x="0" y="9" width="8" height="8"></rect>
            <rect id="Rectangle-Copy-79" fill="#3489FB" x="18" y="0" width="8" height="8"></rect>
            <rect id="Rectangle-Copy-78" fill="#3489FB" x="9" y="0" width="8" height="8"></rect>
            <rect id="Rectangle-Copy-77" fill="#3489FB" x="0" y="0" width="8" height="8"></rect>
        </g>
        <g id="Group-3" transform="translate(170.000000, 30.000000) rotate(-315.000000) translate(-170.000000, -30.000000) translate(157.000000, 17.000000)">
            <rect id="Rectangle-Copy-99" fill="#F2F2FA" x="18" y="18" width="8" height="8"></rect>
            <rect id="Rectangle-Copy-98" fill="#F2F2FA" x="9" y="18" width="8" height="8"></rect>
            <rect id="Rectangle-Copy-97" fill="#F2F2FA" x="0" y="18" width="8" height="8"></rect>
            <rect id="Rectangle-Copy-89" fill="#3489FB" x="18" y="9" width="8" height="8"></rect>
            <path d="M9,9 L17,9 L17,17 L9,17 L9,9 Z" id="Rectangle-Copy-88" stroke="#333136" fill="#3489FB" stroke-dasharray="1,1"></path>
            <rect id="Rectangle-Copy-87" fill="#F2F2FA" x="0" y="9" width="8" height="8"></rect>
            <rect id="Rectangle-Copy-79" fill="#F2F2FA" x="18" y="0" width="8" height="8"></rect>
            <rect id="Rectangle-Copy-78" fill="#3489FB" x="9" y="0" width="8" height="8"></rect>
            <rect id="Rectangle-Copy-77" fill="#3489FB" x="0" y="0" width="8" height="8"></rect>
        </g>
        <text id="Too-few" font-family="PTSerif-Regular, PT Serif" font-size="12" font-weight="normal" letter-spacing="0.0408000052" fill="#333136">
            <tspan x="10.5" y="66">Too few</tspan>
        </text>
        <text id="Too-many" font-family="PTSerif-Regular, PT Serif" font-size="12" font-weight="normal" letter-spacing="0.0408000052" fill="#333136">
            <tspan x="76.5" y="66">Too many</tspan>
        </text>
        <text id="Just-right!" font-family="PTSerif-Regular, PT Serif" font-size="12" font-weight="normal" letter-spacing="0.0408000052" fill="#333136">
            <tspan x="143" y="66">Just right!</tspan>
        </text>
    </g>
</svg>