<?xml version="1.0" encoding="UTF-8"?>
<svg width="20px" height="20px" viewBox="0 0 20 20" version="1.1" xmlns="http://www.w3.org/2000/svg" xmlns:xlink="http://www.w3.org/1999/xlink">
    <!-- Generator: Sketch 52.5 (67469) - http://www.bohemiancoding.com/sketch -->
    <title>reset</title>
    <desc>Created with Sketch.</desc>
    <g id="reset" stroke="none" stroke-width="1" fill="none" fill-rule="evenodd">
        <g id="Group-3" transform="translate(2.000000, 3.000000)">
            <polygon id="Rectangle-5-Copy-26" fill="#333333" points="12 12 15 12 15 15 12 15"></polygon>
            <polygon id="Rectangle-5-Copy-25" fill="#92E9D4" points="8 12 11 12 11 15 8 15"></polygon>
            <polygon id="Rectangle-5-Copy-24" fill="#333333" points="4 12 7 12 7 15 4 15"></polygon>
            <polygon id="Rectangle-5-Copy-23" fill="#92E9D4" points="0 12 3 12 3 15 0 15"></polygon>
            <polygon id="Rectangle-5-Copy-21" fill="#333333" points="12 8 15 8 15 11 12 11"></polygon>
            <polygon id="Rectangle-5-Copy-20" fill="#92E9D4" points="8 8 11 8 11 11 8 11"></polygon>
            <polygon id="Rectangle-5-Copy-19" fill="#92E9D4" points="4 8 7 8 7 11 4 11"></polygon>
            <polygon id="Rectangle-5-Copy-18" fill="#333333" points="0 8 3 8 3 11 0 11"></polygon>
            <polygon id="Rectangle-5-Copy-16" fill="#92E9D4" points="12 4 15 4 15 7 12 7"></polygon>
            <polygon id="Rectangle-5-Copy-15" fill="#92E9D4" points="8 4 11 4 11 7 8 7"></polygon>
            <polygon id="Rectangle-5-Copy-14" fill="#333333" points="4 4 7 4 7 7 4 7"></polygon>
            <polygon id="Rectangle-5-Copy-13" fill="#92E9D4" points="0 4 3 4 3 7 0 7"></polygon>
            <polygon id="Rectangle-5-Copy-11" fill="#333333" points="12 0 15 0 15 3 12 3"></polygon>
            <polygon id="Rectangle-5-Copy-10" fill="#333333" points="8 0 11 0 11 3 8 3"></polygon>
            <polygon id="Rectangle-5-Copy-9" fill="#92E9D4" points="4 0 7 0 7 3 4 3"></polygon>
            <polygon id="Rectangle-5-Copy-8" fill="#333333" points="0 0 3 0 3 3 0 3"></polygon>
        </g>
    </g>
</svg>